<svg width="128" height="128" viewBox="-1.5 -40 128 128"
    xmlns="http://www.w3.org/2000/svg">
    <defs>
        <linearGradient id="Runic" x1="0" x2="1" y1="0" y2="0">
            <stop offset="0%" stop-color="#f97316" />
            <stop offset="100%" stop-color="#eab308" />
        </linearGradient>
    </defs>

    <g id="svgGroup" stroke-linecap="round" fill-rule="evenodd" font-size="9pt" stroke="url(#Runic)" stroke-width="1" fill="url(#Runic)" style="stroke:url(#Runic);stroke-width:1;fill:url(#Runic)">
        <path d="M 33.096 39.984 L 28.056 39.984 L 28.056 0 L 33.376 0 Q 37.52 0 41.552 1.12 Q 45.584 2.24 48.86 4.62 Q 52.136 7 54.096 10.78 A 16.726 16.726 0 0 1 55.625 15.247 Q 56.016 17.213 56.052 19.467 A 28.92 28.92 0 0 1 56.056 19.936 L 56.056 39.984 L 50.848 39.984 L 50.848 20.216 Q 50.848 15.785 49.142 12.762 A 10.782 10.782 0 0 0 48.44 11.676 A 13.906 13.906 0 0 0 42.313 6.983 A 16.722 16.722 0 0 0 42 6.86 A 23.476 23.476 0 0 0 35.842 5.449 A 28.686 28.686 0 0 0 33.096 5.32 L 33.096 39.984 Z M 5.04 39.984 L 0 39.984 L 0 0 L 5.04 0 L 17.92 7.28 L 17.92 12.768 L 13.328 20.664 L 20.664 39.984 L 15.288 39.984 L 8.008 20.384 L 13.664 10.584 L 5.04 5.712 L 5.04 39.984 Z M 77.672 39.984 L 72.632 39.984 L 72.632 20.496 L 63.168 14.952 L 65.184 11.424 L 72.632 15.848 L 72.632 0 L 77.672 0 L 77.672 18.816 L 87.08 24.36 L 85.12 27.72 L 77.672 23.408 L 77.672 39.984 Z M 115.808 39.984 L 110.768 39.984 L 110.768 0 L 115.808 0 L 125.216 5.544 L 123.256 8.904 L 115.808 4.592 L 115.808 9.016 L 125.216 14.56 L 123.256 17.92 L 115.808 13.608 L 115.808 39.984 Z M 99.904 39.984 L 94.752 39.984 L 94.752 0 L 99.904 0 L 99.904 39.984 Z" vector-effect="non-scaling-stroke"/>
    </g>
</svg>